<mxfile host="app.diagrams.net" modified="2020-10-22T17:41:13.926Z" agent="5.0 (Windows NT 10.0; Win64; x64) AppleWebKit/537.36 (KHTML, like Gecko) Chrome/86.0.4240.75 Safari/537.36" etag="zDutBzEKIv9LtaxkLQy8" version="13.8.1" type="github">
  <diagram name="Page-1" id="efa7a0a1-bf9b-a30e-e6df-94a7791c09e9">
    <mxGraphModel dx="2996" dy="908" grid="1" gridSize="10" guides="1" tooltips="1" connect="1" arrows="1" fold="1" page="1" pageScale="1" pageWidth="1169" pageHeight="1654" background="#ffffff" math="0" shadow="0">
      <root>
        <mxCell id="0" />
        <mxCell id="1" parent="0" />
        <mxCell id="h-m4HwnTKxRCpeS-PRZZ-185" value="" style="rounded=0;whiteSpace=wrap;html=1;fillColor=#CCCCCC;" vertex="1" parent="1">
          <mxGeometry x="-220" y="1000" width="1630" height="170" as="geometry" />
        </mxCell>
        <mxCell id="h-m4HwnTKxRCpeS-PRZZ-114" value="&lt;div style=&quot;box-sizing: border-box ; width: 100% ; background: #e4e4e4 ; padding: 2px&quot;&gt;HUB Partner&lt;/div&gt;&lt;table style=&quot;width: 100% ; font-size: 1em&quot; cellpadding=&quot;2&quot; cellspacing=&quot;0&quot;&gt;&lt;tbody&gt;&lt;tr&gt;&lt;td&gt;PK&lt;/td&gt;&lt;td&gt;ID&lt;/td&gt;&lt;/tr&gt;&lt;tr&gt;&lt;td&gt;&lt;br&gt;&lt;/td&gt;&lt;td&gt;Partnernummer&lt;/td&gt;&lt;/tr&gt;&lt;tr&gt;&lt;td&gt;&lt;/td&gt;&lt;td&gt;LoadDate&lt;br&gt;DataSourceID&lt;br&gt;&lt;br&gt;&lt;/td&gt;&lt;/tr&gt;&lt;/tbody&gt;&lt;/table&gt;" style="verticalAlign=top;align=left;overflow=fill;html=1;fillColor=#66B2FF;" vertex="1" parent="1">
          <mxGeometry x="160" y="410" width="180" height="120" as="geometry" />
        </mxCell>
        <mxCell id="h-m4HwnTKxRCpeS-PRZZ-115" value="&lt;div style=&quot;box-sizing: border-box ; width: 100% ; background: #e4e4e4 ; padding: 2px&quot;&gt;LINK PartnerKontaktdaten&lt;/div&gt;&lt;table style=&quot;width: 100% ; font-size: 1em&quot; cellpadding=&quot;2&quot; cellspacing=&quot;0&quot;&gt;&lt;tbody&gt;&lt;tr&gt;&lt;td&gt;PKI&lt;/td&gt;&lt;td&gt;ID&lt;/td&gt;&lt;/tr&gt;&lt;tr&gt;&lt;td&gt;&lt;br&gt;&lt;/td&gt;&lt;td&gt;PartnerID&lt;br&gt;KontaktdatenID&lt;/td&gt;&lt;/tr&gt;&lt;tr&gt;&lt;td&gt;&lt;/td&gt;&lt;td&gt;LoadDate&lt;br&gt;DataSourceID&lt;/td&gt;&lt;/tr&gt;&lt;/tbody&gt;&lt;/table&gt;" style="verticalAlign=top;align=left;overflow=fill;html=1;fillColor=#66FF66;" vertex="1" parent="1">
          <mxGeometry x="440" y="410" width="180" height="120" as="geometry" />
        </mxCell>
        <mxCell id="h-m4HwnTKxRCpeS-PRZZ-116" value="&lt;div style=&quot;box-sizing: border-box ; width: 100% ; background: #e4e4e4 ; padding: 2px&quot;&gt;HUB Kontaktdaten&lt;/div&gt;&lt;table style=&quot;width: 100% ; font-size: 1em&quot; cellpadding=&quot;2&quot; cellspacing=&quot;0&quot;&gt;&lt;tbody&gt;&lt;tr&gt;&lt;td&gt;PK&lt;/td&gt;&lt;td&gt;ID&lt;/td&gt;&lt;/tr&gt;&lt;tr&gt;&lt;td&gt;&lt;br&gt;&lt;/td&gt;&lt;td&gt;Adressnummer&lt;/td&gt;&lt;/tr&gt;&lt;tr&gt;&lt;td&gt;&lt;/td&gt;&lt;td&gt;LoadDate&lt;br&gt;DataSourceID&lt;/td&gt;&lt;/tr&gt;&lt;/tbody&gt;&lt;/table&gt;" style="verticalAlign=top;align=left;overflow=fill;html=1;fillColor=#66B2FF;" vertex="1" parent="1">
          <mxGeometry x="730" y="410" width="180" height="120" as="geometry" />
        </mxCell>
        <mxCell id="h-m4HwnTKxRCpeS-PRZZ-117" value="&amp;nbsp;PartnerID" style="endArrow=open;html=1;endSize=12;startArrow=diamondThin;startSize=14;startFill=0;edgeStyle=orthogonalEdgeStyle;" edge="1" parent="1">
          <mxGeometry relative="1" as="geometry">
            <mxPoint x="340" y="470" as="sourcePoint" />
            <mxPoint x="440" y="470" as="targetPoint" />
          </mxGeometry>
        </mxCell>
        <mxCell id="h-m4HwnTKxRCpeS-PRZZ-118" value="1" style="edgeLabel;resizable=0;html=1;align=left;verticalAlign=top;" connectable="0" vertex="1" parent="h-m4HwnTKxRCpeS-PRZZ-117">
          <mxGeometry x="-1" relative="1" as="geometry" />
        </mxCell>
        <mxCell id="h-m4HwnTKxRCpeS-PRZZ-119" value="0..n" style="edgeLabel;resizable=0;html=1;align=right;verticalAlign=top;" connectable="0" vertex="1" parent="h-m4HwnTKxRCpeS-PRZZ-117">
          <mxGeometry x="1" relative="1" as="geometry" />
        </mxCell>
        <mxCell id="h-m4HwnTKxRCpeS-PRZZ-120" value="&amp;nbsp;PartnerID" style="endArrow=open;html=1;endSize=12;startArrow=diamondThin;startSize=14;startFill=0;edgeStyle=orthogonalEdgeStyle;entryX=0;entryY=0.5;entryDx=0;entryDy=0;" edge="1" parent="1" target="h-m4HwnTKxRCpeS-PRZZ-116">
          <mxGeometry relative="1" as="geometry">
            <mxPoint x="620" y="469.6599999999999" as="sourcePoint" />
            <mxPoint x="720" y="469.6599999999999" as="targetPoint" />
          </mxGeometry>
        </mxCell>
        <mxCell id="h-m4HwnTKxRCpeS-PRZZ-121" value="1" style="edgeLabel;resizable=0;html=1;align=left;verticalAlign=top;" connectable="0" vertex="1" parent="h-m4HwnTKxRCpeS-PRZZ-120">
          <mxGeometry x="-1" relative="1" as="geometry" />
        </mxCell>
        <mxCell id="h-m4HwnTKxRCpeS-PRZZ-122" value="0..n" style="edgeLabel;resizable=0;html=1;align=right;verticalAlign=top;" connectable="0" vertex="1" parent="h-m4HwnTKxRCpeS-PRZZ-120">
          <mxGeometry x="1" relative="1" as="geometry" />
        </mxCell>
        <mxCell id="h-m4HwnTKxRCpeS-PRZZ-123" value="&lt;div style=&quot;box-sizing: border-box ; width: 100% ; background: #e4e4e4 ; padding: 2px&quot;&gt;SAT PartnerBP&lt;/div&gt;&lt;table style=&quot;width: 100% ; font-size: 1em&quot; cellpadding=&quot;2&quot; cellspacing=&quot;0&quot;&gt;&lt;tbody&gt;&lt;tr&gt;&lt;td&gt;PK&lt;/td&gt;&lt;td&gt;ID&lt;/td&gt;&lt;/tr&gt;&lt;tr&gt;&lt;td&gt;&lt;br&gt;&lt;/td&gt;&lt;td&gt;PartnerID&lt;br&gt;LoadDate&lt;/td&gt;&lt;/tr&gt;&lt;tr&gt;&lt;td&gt;&lt;/td&gt;&lt;td&gt;MandantID&lt;br&gt;DataSourceID&lt;br&gt;Attribut1&lt;br&gt;...&lt;br&gt;&lt;br&gt;&lt;/td&gt;&lt;/tr&gt;&lt;/tbody&gt;&lt;/table&gt;" style="verticalAlign=top;align=left;overflow=fill;html=1;fillColor=#FFFF66;" vertex="1" parent="1">
          <mxGeometry x="160" y="170" width="180" height="120" as="geometry" />
        </mxCell>
        <mxCell id="h-m4HwnTKxRCpeS-PRZZ-124" value="PartnerID" style="endArrow=open;html=1;endSize=12;startArrow=diamondThin;startSize=14;startFill=0;edgeStyle=orthogonalEdgeStyle;entryX=0.447;entryY=0.012;entryDx=0;entryDy=0;entryPerimeter=0;" edge="1" parent="1" target="h-m4HwnTKxRCpeS-PRZZ-114">
          <mxGeometry relative="1" as="geometry">
            <mxPoint x="240" y="290" as="sourcePoint" />
            <mxPoint x="400" y="290" as="targetPoint" />
          </mxGeometry>
        </mxCell>
        <mxCell id="h-m4HwnTKxRCpeS-PRZZ-125" value="1" style="edgeLabel;resizable=0;html=1;align=left;verticalAlign=top;" connectable="0" vertex="1" parent="h-m4HwnTKxRCpeS-PRZZ-124">
          <mxGeometry x="-1" relative="1" as="geometry">
            <mxPoint x="10" as="offset" />
          </mxGeometry>
        </mxCell>
        <mxCell id="h-m4HwnTKxRCpeS-PRZZ-126" value="1" style="edgeLabel;resizable=0;html=1;align=right;verticalAlign=top;" connectable="0" vertex="1" parent="h-m4HwnTKxRCpeS-PRZZ-124">
          <mxGeometry x="1" relative="1" as="geometry">
            <mxPoint x="19.54" y="-31.59" as="offset" />
          </mxGeometry>
        </mxCell>
        <mxCell id="h-m4HwnTKxRCpeS-PRZZ-127" value="&lt;div style=&quot;box-sizing: border-box ; width: 100% ; background: #e4e4e4 ; padding: 2px&quot;&gt;SAT IdentifikationsnummerBP&lt;/div&gt;&lt;table style=&quot;width: 100% ; font-size: 1em&quot; cellpadding=&quot;2&quot; cellspacing=&quot;0&quot;&gt;&lt;tbody&gt;&lt;tr&gt;&lt;td&gt;PK&lt;/td&gt;&lt;td&gt;ID&lt;/td&gt;&lt;/tr&gt;&lt;tr&gt;&lt;td&gt;&lt;br&gt;&lt;/td&gt;&lt;td&gt;PartnerID&lt;br&gt;LoadDate&lt;br&gt;&lt;/td&gt;&lt;/tr&gt;&lt;tr&gt;&lt;td&gt;&lt;/td&gt;&lt;td&gt;MandantID&lt;br&gt;DataSourceID&lt;br&gt;Attribut1&lt;br&gt;...&lt;br&gt;&lt;br&gt;&lt;/td&gt;&lt;/tr&gt;&lt;/tbody&gt;&lt;/table&gt;" style="verticalAlign=top;align=left;overflow=fill;html=1;fillColor=#FFFF66;" vertex="1" parent="1">
          <mxGeometry x="-80" y="210" width="180" height="120" as="geometry" />
        </mxCell>
        <mxCell id="h-m4HwnTKxRCpeS-PRZZ-128" value="&lt;div style=&quot;box-sizing: border-box ; width: 100% ; background: #e4e4e4 ; padding: 2px&quot;&gt;SAT AdresseBPCDS041&lt;/div&gt;&lt;table style=&quot;width: 100% ; font-size: 1em&quot; cellpadding=&quot;2&quot; cellspacing=&quot;0&quot;&gt;&lt;tbody&gt;&lt;tr&gt;&lt;td&gt;PK&lt;/td&gt;&lt;td&gt;ID&lt;/td&gt;&lt;/tr&gt;&lt;tr&gt;&lt;td&gt;&lt;br&gt;&lt;/td&gt;&lt;td&gt;KontaktdatenID&lt;/td&gt;&lt;/tr&gt;&lt;tr&gt;&lt;td&gt;&lt;/td&gt;&lt;td&gt;MandantID&lt;br&gt;DataSourceID&lt;br&gt;Attribut1&lt;br&gt;...&lt;br&gt;&lt;br&gt;&lt;/td&gt;&lt;/tr&gt;&lt;/tbody&gt;&lt;/table&gt;" style="verticalAlign=top;align=left;overflow=fill;html=1;fillColor=#FFFF66;" vertex="1" parent="1">
          <mxGeometry x="700" y="110" width="180" height="120" as="geometry" />
        </mxCell>
        <mxCell id="h-m4HwnTKxRCpeS-PRZZ-129" value="&lt;div style=&quot;box-sizing: border-box ; width: 100% ; background: #e4e4e4 ; padding: 2px&quot;&gt;SAT AdresseBPCDS042&lt;/div&gt;&lt;table style=&quot;width: 100% ; font-size: 1em&quot; cellpadding=&quot;2&quot; cellspacing=&quot;0&quot;&gt;&lt;tbody&gt;&lt;tr&gt;&lt;td&gt;PK&lt;/td&gt;&lt;td&gt;ID&lt;/td&gt;&lt;/tr&gt;&lt;tr&gt;&lt;td&gt;&lt;br&gt;&lt;/td&gt;&lt;td&gt;KontaktdatenID&lt;/td&gt;&lt;/tr&gt;&lt;tr&gt;&lt;td&gt;&lt;/td&gt;&lt;td&gt;MandantID&lt;br&gt;DataSourceID&lt;br&gt;Attribut1&lt;br&gt;...&lt;br&gt;&lt;br&gt;&lt;/td&gt;&lt;/tr&gt;&lt;/tbody&gt;&lt;/table&gt;" style="verticalAlign=top;align=left;overflow=fill;html=1;fillColor=#FFFF66;" vertex="1" parent="1">
          <mxGeometry x="930" y="110" width="180" height="120" as="geometry" />
        </mxCell>
        <mxCell id="h-m4HwnTKxRCpeS-PRZZ-136" value="KontaktdatenID" style="endArrow=open;html=1;endSize=12;startArrow=diamondThin;startSize=14;startFill=0;edgeStyle=orthogonalEdgeStyle;entryX=0.437;entryY=0.017;entryDx=0;entryDy=0;entryPerimeter=0;" edge="1" parent="1" target="h-m4HwnTKxRCpeS-PRZZ-116">
          <mxGeometry relative="1" as="geometry">
            <mxPoint x="760" y="230" as="sourcePoint" />
            <mxPoint x="920" y="230" as="targetPoint" />
          </mxGeometry>
        </mxCell>
        <mxCell id="h-m4HwnTKxRCpeS-PRZZ-137" value="1" style="edgeLabel;resizable=0;html=1;align=left;verticalAlign=top;" connectable="0" vertex="1" parent="h-m4HwnTKxRCpeS-PRZZ-136">
          <mxGeometry x="-1" relative="1" as="geometry" />
        </mxCell>
        <mxCell id="h-m4HwnTKxRCpeS-PRZZ-138" value="1" style="edgeLabel;resizable=0;html=1;align=right;verticalAlign=top;" connectable="0" vertex="1" parent="h-m4HwnTKxRCpeS-PRZZ-136">
          <mxGeometry x="1" relative="1" as="geometry" />
        </mxCell>
        <mxCell id="h-m4HwnTKxRCpeS-PRZZ-139" value="KontaktdatenID" style="endArrow=open;html=1;endSize=12;startArrow=diamondThin;startSize=14;startFill=0;edgeStyle=orthogonalEdgeStyle;" edge="1" parent="1" source="h-m4HwnTKxRCpeS-PRZZ-129">
          <mxGeometry relative="1" as="geometry">
            <mxPoint x="770" y="240" as="sourcePoint" />
            <mxPoint x="830" y="410" as="targetPoint" />
            <Array as="points">
              <mxPoint x="930" y="360" />
              <mxPoint x="830" y="360" />
            </Array>
          </mxGeometry>
        </mxCell>
        <mxCell id="h-m4HwnTKxRCpeS-PRZZ-140" value="1" style="edgeLabel;resizable=0;html=1;align=left;verticalAlign=top;" connectable="0" vertex="1" parent="h-m4HwnTKxRCpeS-PRZZ-139">
          <mxGeometry x="-1" relative="1" as="geometry" />
        </mxCell>
        <mxCell id="h-m4HwnTKxRCpeS-PRZZ-141" value="1" style="edgeLabel;resizable=0;html=1;align=right;verticalAlign=top;" connectable="0" vertex="1" parent="h-m4HwnTKxRCpeS-PRZZ-139">
          <mxGeometry x="1" relative="1" as="geometry" />
        </mxCell>
        <mxCell id="h-m4HwnTKxRCpeS-PRZZ-142" value="PartnerID" style="endArrow=open;html=1;endSize=12;startArrow=diamondThin;startSize=14;startFill=0;edgeStyle=orthogonalEdgeStyle;entryX=0.113;entryY=0.036;entryDx=0;entryDy=0;entryPerimeter=0;exitX=1.022;exitY=0.85;exitDx=0;exitDy=0;exitPerimeter=0;" edge="1" parent="1" source="h-m4HwnTKxRCpeS-PRZZ-127" target="h-m4HwnTKxRCpeS-PRZZ-114">
          <mxGeometry relative="1" as="geometry">
            <mxPoint x="20" y="330" as="sourcePoint" />
            <mxPoint x="20.460000000000036" y="451.4399999999998" as="targetPoint" />
            <Array as="points">
              <mxPoint x="104" y="330" />
              <mxPoint x="180" y="330" />
            </Array>
          </mxGeometry>
        </mxCell>
        <mxCell id="h-m4HwnTKxRCpeS-PRZZ-143" value="1" style="edgeLabel;resizable=0;html=1;align=left;verticalAlign=top;" connectable="0" vertex="1" parent="h-m4HwnTKxRCpeS-PRZZ-142">
          <mxGeometry x="-1" relative="1" as="geometry">
            <mxPoint x="10" as="offset" />
          </mxGeometry>
        </mxCell>
        <mxCell id="h-m4HwnTKxRCpeS-PRZZ-144" value="1" style="edgeLabel;resizable=0;html=1;align=right;verticalAlign=top;" connectable="0" vertex="1" parent="h-m4HwnTKxRCpeS-PRZZ-142">
          <mxGeometry x="1" relative="1" as="geometry">
            <mxPoint x="19.54" y="-31.59" as="offset" />
          </mxGeometry>
        </mxCell>
        <mxCell id="h-m4HwnTKxRCpeS-PRZZ-145" value="&lt;div style=&quot;box-sizing: border-box ; width: 100% ; background: #e4e4e4 ; padding: 2px&quot;&gt;SAT ZusatzinformationBP&lt;/div&gt;&lt;table style=&quot;width: 100% ; font-size: 1em&quot; cellpadding=&quot;2&quot; cellspacing=&quot;0&quot;&gt;&lt;tbody&gt;&lt;tr&gt;&lt;td&gt;PK&lt;/td&gt;&lt;td&gt;ID&lt;/td&gt;&lt;/tr&gt;&lt;tr&gt;&lt;td&gt;&lt;br&gt;&lt;/td&gt;&lt;td&gt;PartnerID&lt;br&gt;LoadDate&lt;br&gt;&lt;/td&gt;&lt;/tr&gt;&lt;tr&gt;&lt;td&gt;&lt;/td&gt;&lt;td&gt;MandantID&lt;br&gt;DataSourceID&lt;br&gt;Attribut1&lt;br&gt;...&lt;br&gt;&lt;br&gt;&lt;/td&gt;&lt;/tr&gt;&lt;/tbody&gt;&lt;/table&gt;" style="verticalAlign=top;align=left;overflow=fill;html=1;fillColor=#FFFF66;" vertex="1" parent="1">
          <mxGeometry x="-230" y="370" width="180" height="120" as="geometry" />
        </mxCell>
        <mxCell id="h-m4HwnTKxRCpeS-PRZZ-146" value="&lt;div style=&quot;box-sizing: border-box ; width: 100% ; background: #e4e4e4 ; padding: 2px&quot;&gt;SAT TelefonnummerBP&lt;/div&gt;&lt;table style=&quot;width: 100% ; font-size: 1em&quot; cellpadding=&quot;2&quot; cellspacing=&quot;0&quot;&gt;&lt;tbody&gt;&lt;tr&gt;&lt;td&gt;PK&lt;/td&gt;&lt;td&gt;ID&lt;/td&gt;&lt;/tr&gt;&lt;tr&gt;&lt;td&gt;&lt;br&gt;&lt;/td&gt;&lt;td&gt;KontaktdatenID&lt;/td&gt;&lt;/tr&gt;&lt;tr&gt;&lt;td&gt;&lt;/td&gt;&lt;td&gt;MandantID&lt;br&gt;DataSourceID&lt;br&gt;Attribut1&lt;br&gt;...&lt;br&gt;&lt;br&gt;&lt;/td&gt;&lt;/tr&gt;&lt;/tbody&gt;&lt;/table&gt;" style="verticalAlign=top;align=left;overflow=fill;html=1;fillColor=#FFFF66;" vertex="1" parent="1">
          <mxGeometry x="1150" y="210" width="180" height="120" as="geometry" />
        </mxCell>
        <mxCell id="h-m4HwnTKxRCpeS-PRZZ-147" value="&lt;div style=&quot;box-sizing: border-box ; width: 100% ; background: #e4e4e4 ; padding: 2px&quot;&gt;SAT FaxnummerBP&lt;/div&gt;&lt;table style=&quot;width: 100% ; font-size: 1em&quot; cellpadding=&quot;2&quot; cellspacing=&quot;0&quot;&gt;&lt;tbody&gt;&lt;tr&gt;&lt;td&gt;PK&lt;/td&gt;&lt;td&gt;ID&lt;/td&gt;&lt;/tr&gt;&lt;tr&gt;&lt;td&gt;&lt;br&gt;&lt;/td&gt;&lt;td&gt;KontaktdatenID&lt;/td&gt;&lt;/tr&gt;&lt;tr&gt;&lt;td&gt;&lt;/td&gt;&lt;td&gt;MandantID&lt;br&gt;DataSourceID&lt;br&gt;Attribut1&lt;br&gt;...&lt;br&gt;&lt;br&gt;&lt;/td&gt;&lt;/tr&gt;&lt;/tbody&gt;&lt;/table&gt;" style="verticalAlign=top;align=left;overflow=fill;html=1;fillColor=#FFFF66;" vertex="1" parent="1">
          <mxGeometry x="1100" y="370" width="180" height="120" as="geometry" />
        </mxCell>
        <mxCell id="h-m4HwnTKxRCpeS-PRZZ-148" value="&lt;div style=&quot;box-sizing: border-box ; width: 100% ; background: #e4e4e4 ; padding: 2px&quot;&gt;SAT PagernummerBP&lt;/div&gt;&lt;table style=&quot;width: 100% ; font-size: 1em&quot; cellpadding=&quot;2&quot; cellspacing=&quot;0&quot;&gt;&lt;tbody&gt;&lt;tr&gt;&lt;td&gt;PK&lt;/td&gt;&lt;td&gt;ID&lt;/td&gt;&lt;/tr&gt;&lt;tr&gt;&lt;td&gt;&lt;br&gt;&lt;/td&gt;&lt;td&gt;KontaktdatenID&lt;/td&gt;&lt;/tr&gt;&lt;tr&gt;&lt;td&gt;&lt;/td&gt;&lt;td&gt;MandantID&lt;br&gt;DataSourceID&lt;br&gt;Attribut1&lt;br&gt;...&lt;br&gt;&lt;br&gt;&lt;/td&gt;&lt;/tr&gt;&lt;/tbody&gt;&lt;/table&gt;" style="verticalAlign=top;align=left;overflow=fill;html=1;fillColor=#FFFF66;" vertex="1" parent="1">
          <mxGeometry x="1100" y="510" width="180" height="120" as="geometry" />
        </mxCell>
        <mxCell id="h-m4HwnTKxRCpeS-PRZZ-149" value="&lt;div style=&quot;box-sizing: border-box ; width: 100% ; background: #e4e4e4 ; padding: 2px&quot;&gt;SAT MailadresseBP&lt;/div&gt;&lt;table style=&quot;width: 100% ; font-size: 1em&quot; cellpadding=&quot;2&quot; cellspacing=&quot;0&quot;&gt;&lt;tbody&gt;&lt;tr&gt;&lt;td&gt;PK&lt;/td&gt;&lt;td&gt;ID&lt;/td&gt;&lt;/tr&gt;&lt;tr&gt;&lt;td&gt;&lt;br&gt;&lt;/td&gt;&lt;td&gt;KontaktdatenID&lt;/td&gt;&lt;/tr&gt;&lt;tr&gt;&lt;td&gt;&lt;/td&gt;&lt;td&gt;MandantID&lt;br&gt;DataSourceID&lt;br&gt;Attribut1&lt;br&gt;...&lt;br&gt;&lt;br&gt;&lt;/td&gt;&lt;/tr&gt;&lt;/tbody&gt;&lt;/table&gt;" style="verticalAlign=top;align=left;overflow=fill;html=1;fillColor=#FFFF66;" vertex="1" parent="1">
          <mxGeometry x="1080" y="660" width="180" height="120" as="geometry" />
        </mxCell>
        <mxCell id="h-m4HwnTKxRCpeS-PRZZ-150" value="&lt;div style=&quot;box-sizing: border-box ; width: 100% ; background: #e4e4e4 ; padding: 2px&quot;&gt;SAT GeschaeftspartnerrolleBP&lt;/div&gt;&lt;table style=&quot;width: 100% ; font-size: 1em&quot; cellpadding=&quot;2&quot; cellspacing=&quot;0&quot;&gt;&lt;tbody&gt;&lt;tr&gt;&lt;td&gt;PK&lt;/td&gt;&lt;td&gt;ID&lt;/td&gt;&lt;/tr&gt;&lt;tr&gt;&lt;td&gt;&lt;br&gt;&lt;/td&gt;&lt;td&gt;PartnerID&lt;br&gt;LoadDate&lt;br&gt;&lt;/td&gt;&lt;/tr&gt;&lt;tr&gt;&lt;td&gt;&lt;/td&gt;&lt;td&gt;MandantID&lt;br&gt;DataSourceID&lt;br&gt;Attribut1&lt;br&gt;...&lt;br&gt;&lt;br&gt;&lt;/td&gt;&lt;/tr&gt;&lt;/tbody&gt;&lt;/table&gt;" style="verticalAlign=top;align=left;overflow=fill;html=1;fillColor=#FFFF66;" vertex="1" parent="1">
          <mxGeometry x="-230" y="530" width="180" height="120" as="geometry" />
        </mxCell>
        <mxCell id="h-m4HwnTKxRCpeS-PRZZ-151" value="&lt;div style=&quot;box-sizing: border-box ; width: 100% ; background: #e4e4e4 ; padding: 2px&quot;&gt;SAT KreditkartendatenBP&lt;/div&gt;&lt;table style=&quot;width: 100% ; font-size: 1em&quot; cellpadding=&quot;2&quot; cellspacing=&quot;0&quot;&gt;&lt;tbody&gt;&lt;tr&gt;&lt;td&gt;PK&lt;/td&gt;&lt;td&gt;ID&lt;/td&gt;&lt;/tr&gt;&lt;tr&gt;&lt;td&gt;&lt;br&gt;&lt;/td&gt;&lt;td&gt;PartnerID&lt;br&gt;LoadDate&lt;br&gt;&lt;/td&gt;&lt;/tr&gt;&lt;tr&gt;&lt;td&gt;&lt;/td&gt;&lt;td&gt;MandantID&lt;br&gt;DataSourceID&lt;br&gt;Attribut1&lt;br&gt;...&lt;br&gt;&lt;br&gt;&lt;/td&gt;&lt;/tr&gt;&lt;/tbody&gt;&lt;/table&gt;" style="verticalAlign=top;align=left;overflow=fill;html=1;fillColor=#FFFF66;" vertex="1" parent="1">
          <mxGeometry x="-210" y="680" width="180" height="120" as="geometry" />
        </mxCell>
        <mxCell id="h-m4HwnTKxRCpeS-PRZZ-152" value="&lt;div style=&quot;box-sizing: border-box ; width: 100% ; background: #e4e4e4 ; padding: 2px&quot;&gt;SAT SteuernummerBP&lt;/div&gt;&lt;table style=&quot;width: 100% ; font-size: 1em&quot; cellpadding=&quot;2&quot; cellspacing=&quot;0&quot;&gt;&lt;tbody&gt;&lt;tr&gt;&lt;td&gt;PK&lt;/td&gt;&lt;td&gt;ID&lt;/td&gt;&lt;/tr&gt;&lt;tr&gt;&lt;td&gt;&lt;br&gt;&lt;/td&gt;&lt;td&gt;PartnerID&lt;br&gt;LoadDate&lt;br&gt;&lt;/td&gt;&lt;/tr&gt;&lt;tr&gt;&lt;td&gt;&lt;/td&gt;&lt;td&gt;MandantID&lt;br&gt;DataSourceID&lt;br&gt;Attribut1&lt;br&gt;...&lt;br&gt;&lt;br&gt;&lt;/td&gt;&lt;/tr&gt;&lt;/tbody&gt;&lt;/table&gt;" style="verticalAlign=top;align=left;overflow=fill;html=1;fillColor=#FFFF66;" vertex="1" parent="1">
          <mxGeometry x="-80" y="830" width="180" height="120" as="geometry" />
        </mxCell>
        <mxCell id="h-m4HwnTKxRCpeS-PRZZ-153" value="PartnerID" style="endArrow=open;html=1;endSize=12;startArrow=diamondThin;startSize=14;startFill=0;edgeStyle=orthogonalEdgeStyle;entryX=0.022;entryY=0.428;entryDx=0;entryDy=0;entryPerimeter=0;exitX=1.022;exitY=0.85;exitDx=0;exitDy=0;exitPerimeter=0;" edge="1" parent="1" target="h-m4HwnTKxRCpeS-PRZZ-114">
          <mxGeometry relative="1" as="geometry">
            <mxPoint x="-49.99999999999997" y="418.84000000000003" as="sourcePoint" />
            <mxPoint x="26.380000000000138" y="521.16" as="targetPoint" />
            <Array as="points">
              <mxPoint x="-50" y="437" />
              <mxPoint x="26" y="437" />
              <mxPoint x="26" y="461" />
            </Array>
          </mxGeometry>
        </mxCell>
        <mxCell id="h-m4HwnTKxRCpeS-PRZZ-154" value="1" style="edgeLabel;resizable=0;html=1;align=left;verticalAlign=top;" connectable="0" vertex="1" parent="h-m4HwnTKxRCpeS-PRZZ-153">
          <mxGeometry x="-1" relative="1" as="geometry">
            <mxPoint x="10" as="offset" />
          </mxGeometry>
        </mxCell>
        <mxCell id="h-m4HwnTKxRCpeS-PRZZ-155" value="1" style="edgeLabel;resizable=0;html=1;align=right;verticalAlign=top;" connectable="0" vertex="1" parent="h-m4HwnTKxRCpeS-PRZZ-153">
          <mxGeometry x="1" relative="1" as="geometry">
            <mxPoint x="-13.899999999999999" y="-31.59" as="offset" />
          </mxGeometry>
        </mxCell>
        <mxCell id="h-m4HwnTKxRCpeS-PRZZ-156" value="PartnerID" style="endArrow=open;html=1;endSize=12;startArrow=diamondThin;startSize=14;startFill=0;edgeStyle=orthogonalEdgeStyle;exitX=1.022;exitY=0.85;exitDx=0;exitDy=0;exitPerimeter=0;" edge="1" parent="1">
          <mxGeometry relative="1" as="geometry">
            <mxPoint x="-50" y="568.7100000000002" as="sourcePoint" />
            <mxPoint x="160" y="510" as="targetPoint" />
            <Array as="points">
              <mxPoint x="-50" y="587" />
              <mxPoint x="26" y="587" />
              <mxPoint x="26" y="510" />
            </Array>
          </mxGeometry>
        </mxCell>
        <mxCell id="h-m4HwnTKxRCpeS-PRZZ-157" value="1" style="edgeLabel;resizable=0;html=1;align=left;verticalAlign=top;" connectable="0" vertex="1" parent="h-m4HwnTKxRCpeS-PRZZ-156">
          <mxGeometry x="-1" relative="1" as="geometry">
            <mxPoint x="10" as="offset" />
          </mxGeometry>
        </mxCell>
        <mxCell id="h-m4HwnTKxRCpeS-PRZZ-158" value="1" style="edgeLabel;resizable=0;html=1;align=right;verticalAlign=top;" connectable="0" vertex="1" parent="h-m4HwnTKxRCpeS-PRZZ-156">
          <mxGeometry x="1" relative="1" as="geometry">
            <mxPoint x="-10.470000000000002" y="10.000000000000004" as="offset" />
          </mxGeometry>
        </mxCell>
        <mxCell id="h-m4HwnTKxRCpeS-PRZZ-159" value="PartnerID" style="endArrow=open;html=1;endSize=12;startArrow=diamondThin;startSize=14;startFill=0;edgeStyle=orthogonalEdgeStyle;exitX=1.022;exitY=0.85;exitDx=0;exitDy=0;exitPerimeter=0;entryX=0.25;entryY=1;entryDx=0;entryDy=0;" edge="1" parent="1" target="h-m4HwnTKxRCpeS-PRZZ-114">
          <mxGeometry x="-0.1638" relative="1" as="geometry">
            <mxPoint x="-30" y="708.71" as="sourcePoint" />
            <mxPoint x="180" y="650" as="targetPoint" />
            <Array as="points">
              <mxPoint x="-30" y="727" />
              <mxPoint x="205" y="727" />
            </Array>
            <mxPoint as="offset" />
          </mxGeometry>
        </mxCell>
        <mxCell id="h-m4HwnTKxRCpeS-PRZZ-160" value="1" style="edgeLabel;resizable=0;html=1;align=left;verticalAlign=top;" connectable="0" vertex="1" parent="h-m4HwnTKxRCpeS-PRZZ-159">
          <mxGeometry x="-1" relative="1" as="geometry">
            <mxPoint x="10" as="offset" />
          </mxGeometry>
        </mxCell>
        <mxCell id="h-m4HwnTKxRCpeS-PRZZ-161" value="1" style="edgeLabel;resizable=0;html=1;align=right;verticalAlign=top;" connectable="0" vertex="1" parent="h-m4HwnTKxRCpeS-PRZZ-159">
          <mxGeometry x="1" relative="1" as="geometry">
            <mxPoint x="-10.470000000000002" y="10.000000000000004" as="offset" />
          </mxGeometry>
        </mxCell>
        <mxCell id="h-m4HwnTKxRCpeS-PRZZ-162" value="PartnerID" style="endArrow=open;html=1;endSize=12;startArrow=diamondThin;startSize=14;startFill=0;edgeStyle=orthogonalEdgeStyle;exitX=1.022;exitY=0.85;exitDx=0;exitDy=0;exitPerimeter=0;entryX=0.65;entryY=0.997;entryDx=0;entryDy=0;entryPerimeter=0;" edge="1" parent="1" target="h-m4HwnTKxRCpeS-PRZZ-114">
          <mxGeometry x="-0.5438" relative="1" as="geometry">
            <mxPoint x="100" y="878.71" as="sourcePoint" />
            <mxPoint x="335" y="700" as="targetPoint" />
            <Array as="points">
              <mxPoint x="100" y="897" />
              <mxPoint x="277" y="897" />
            </Array>
            <mxPoint as="offset" />
          </mxGeometry>
        </mxCell>
        <mxCell id="h-m4HwnTKxRCpeS-PRZZ-163" value="1" style="edgeLabel;resizable=0;html=1;align=left;verticalAlign=top;" connectable="0" vertex="1" parent="h-m4HwnTKxRCpeS-PRZZ-162">
          <mxGeometry x="-1" relative="1" as="geometry">
            <mxPoint x="10" as="offset" />
          </mxGeometry>
        </mxCell>
        <mxCell id="h-m4HwnTKxRCpeS-PRZZ-164" value="1" style="edgeLabel;resizable=0;html=1;align=right;verticalAlign=top;" connectable="0" vertex="1" parent="h-m4HwnTKxRCpeS-PRZZ-162">
          <mxGeometry x="1" relative="1" as="geometry">
            <mxPoint x="-10.470000000000002" y="10.000000000000004" as="offset" />
          </mxGeometry>
        </mxCell>
        <mxCell id="h-m4HwnTKxRCpeS-PRZZ-165" value="KontaktdatenID" style="endArrow=open;html=1;endSize=12;startArrow=diamondThin;startSize=14;startFill=0;edgeStyle=orthogonalEdgeStyle;exitX=0;exitY=0.5;exitDx=0;exitDy=0;" edge="1" parent="1" source="h-m4HwnTKxRCpeS-PRZZ-146">
          <mxGeometry relative="1" as="geometry">
            <mxPoint x="1010" y="270" as="sourcePoint" />
            <mxPoint x="910" y="450" as="targetPoint" />
            <Array as="points">
              <mxPoint x="1010" y="270" />
              <mxPoint x="1010" y="450" />
            </Array>
          </mxGeometry>
        </mxCell>
        <mxCell id="h-m4HwnTKxRCpeS-PRZZ-166" value="1" style="edgeLabel;resizable=0;html=1;align=left;verticalAlign=top;" connectable="0" vertex="1" parent="h-m4HwnTKxRCpeS-PRZZ-165">
          <mxGeometry x="-1" relative="1" as="geometry" />
        </mxCell>
        <mxCell id="h-m4HwnTKxRCpeS-PRZZ-167" value="1" style="edgeLabel;resizable=0;html=1;align=right;verticalAlign=top;" connectable="0" vertex="1" parent="h-m4HwnTKxRCpeS-PRZZ-165">
          <mxGeometry x="1" relative="1" as="geometry" />
        </mxCell>
        <mxCell id="h-m4HwnTKxRCpeS-PRZZ-168" value="KontaktdatenID" style="endArrow=open;html=1;endSize=12;startArrow=diamondThin;startSize=14;startFill=0;edgeStyle=orthogonalEdgeStyle;exitX=0.009;exitY=0.615;exitDx=0;exitDy=0;exitPerimeter=0;" edge="1" parent="1" source="h-m4HwnTKxRCpeS-PRZZ-147">
          <mxGeometry relative="1" as="geometry">
            <mxPoint x="1150" y="300" as="sourcePoint" />
            <mxPoint x="910" y="480" as="targetPoint" />
            <Array as="points">
              <mxPoint x="1102" y="470" />
              <mxPoint x="1010" y="470" />
              <mxPoint x="1010" y="480" />
            </Array>
          </mxGeometry>
        </mxCell>
        <mxCell id="h-m4HwnTKxRCpeS-PRZZ-169" value="1" style="edgeLabel;resizable=0;html=1;align=left;verticalAlign=top;" connectable="0" vertex="1" parent="h-m4HwnTKxRCpeS-PRZZ-168">
          <mxGeometry x="-1" relative="1" as="geometry">
            <mxPoint x="-21.62" as="offset" />
          </mxGeometry>
        </mxCell>
        <mxCell id="h-m4HwnTKxRCpeS-PRZZ-170" value="1" style="edgeLabel;resizable=0;html=1;align=right;verticalAlign=top;" connectable="0" vertex="1" parent="h-m4HwnTKxRCpeS-PRZZ-168">
          <mxGeometry x="1" relative="1" as="geometry" />
        </mxCell>
        <mxCell id="h-m4HwnTKxRCpeS-PRZZ-171" value="KontaktdatenID" style="endArrow=open;html=1;endSize=12;startArrow=diamondThin;startSize=14;startFill=0;edgeStyle=orthogonalEdgeStyle;" edge="1" parent="1">
          <mxGeometry relative="1" as="geometry">
            <mxPoint x="1110" y="570" as="sourcePoint" />
            <mxPoint x="910" y="530" as="targetPoint" />
            <Array as="points">
              <mxPoint x="1030" y="570" />
              <mxPoint x="1030" y="530" />
            </Array>
          </mxGeometry>
        </mxCell>
        <mxCell id="h-m4HwnTKxRCpeS-PRZZ-172" value="1" style="edgeLabel;resizable=0;html=1;align=left;verticalAlign=top;" connectable="0" vertex="1" parent="h-m4HwnTKxRCpeS-PRZZ-171">
          <mxGeometry x="-1" relative="1" as="geometry">
            <mxPoint x="-21.62" as="offset" />
          </mxGeometry>
        </mxCell>
        <mxCell id="h-m4HwnTKxRCpeS-PRZZ-173" value="1" style="edgeLabel;resizable=0;html=1;align=right;verticalAlign=top;" connectable="0" vertex="1" parent="h-m4HwnTKxRCpeS-PRZZ-171">
          <mxGeometry x="1" relative="1" as="geometry" />
        </mxCell>
        <mxCell id="h-m4HwnTKxRCpeS-PRZZ-174" value="KontaktdatenID" style="endArrow=open;html=1;endSize=12;startArrow=diamondThin;startSize=14;startFill=0;edgeStyle=orthogonalEdgeStyle;entryX=0.75;entryY=1;entryDx=0;entryDy=0;" edge="1" parent="1" target="h-m4HwnTKxRCpeS-PRZZ-116">
          <mxGeometry relative="1" as="geometry">
            <mxPoint x="1090" y="690" as="sourcePoint" />
            <mxPoint x="890" y="650" as="targetPoint" />
            <Array as="points">
              <mxPoint x="865" y="690" />
            </Array>
          </mxGeometry>
        </mxCell>
        <mxCell id="h-m4HwnTKxRCpeS-PRZZ-175" value="1" style="edgeLabel;resizable=0;html=1;align=left;verticalAlign=top;" connectable="0" vertex="1" parent="h-m4HwnTKxRCpeS-PRZZ-174">
          <mxGeometry x="-1" relative="1" as="geometry">
            <mxPoint x="-21.62" as="offset" />
          </mxGeometry>
        </mxCell>
        <mxCell id="h-m4HwnTKxRCpeS-PRZZ-176" value="1" style="edgeLabel;resizable=0;html=1;align=right;verticalAlign=top;" connectable="0" vertex="1" parent="h-m4HwnTKxRCpeS-PRZZ-174">
          <mxGeometry x="1" relative="1" as="geometry" />
        </mxCell>
        <mxCell id="h-m4HwnTKxRCpeS-PRZZ-177" value="&lt;div style=&quot;box-sizing: border-box ; width: 100% ; background: #e4e4e4 ; padding: 2px&quot;&gt;LINK AnsprechpartnerBP&lt;/div&gt;&lt;table style=&quot;width: 100% ; font-size: 1em&quot; cellpadding=&quot;2&quot; cellspacing=&quot;0&quot;&gt;&lt;tbody&gt;&lt;tr&gt;&lt;td&gt;PKI&lt;/td&gt;&lt;td&gt;ID&lt;/td&gt;&lt;/tr&gt;&lt;tr&gt;&lt;td&gt;&lt;br&gt;&lt;/td&gt;&lt;td&gt;&lt;/td&gt;&lt;/tr&gt;&lt;tr&gt;&lt;td&gt;&lt;/td&gt;&lt;td&gt;LoadDate&lt;br&gt;DataSourceID&lt;/td&gt;&lt;/tr&gt;&lt;/tbody&gt;&lt;/table&gt;" style="verticalAlign=top;align=left;overflow=fill;html=1;fillColor=#66FF66;" vertex="1" parent="1">
          <mxGeometry x="880" y="1020" width="180" height="120" as="geometry" />
        </mxCell>
        <mxCell id="h-m4HwnTKxRCpeS-PRZZ-178" value="&lt;div style=&quot;box-sizing: border-box ; width: 100% ; background: #e4e4e4 ; padding: 2px&quot;&gt;LINK FirmenbeteiligungBP&lt;/div&gt;&lt;table style=&quot;width: 100% ; font-size: 1em&quot; cellpadding=&quot;2&quot; cellspacing=&quot;0&quot;&gt;&lt;tbody&gt;&lt;tr&gt;&lt;td&gt;PKI&lt;/td&gt;&lt;td&gt;ID&lt;/td&gt;&lt;/tr&gt;&lt;tr&gt;&lt;td&gt;&lt;br&gt;&lt;/td&gt;&lt;td&gt;&lt;br&gt;&lt;/td&gt;&lt;/tr&gt;&lt;tr&gt;&lt;td&gt;&lt;/td&gt;&lt;td&gt;LoadDate&lt;br&gt;DataSourceID&lt;/td&gt;&lt;/tr&gt;&lt;/tbody&gt;&lt;/table&gt;" style="verticalAlign=top;align=left;overflow=fill;html=1;fillColor=#66FF66;" vertex="1" parent="1">
          <mxGeometry x="640" y="1020" width="180" height="120" as="geometry" />
        </mxCell>
        <mxCell id="h-m4HwnTKxRCpeS-PRZZ-179" value="&lt;div style=&quot;box-sizing: border-box ; width: 100% ; background: #e4e4e4 ; padding: 2px&quot;&gt;LINK BeziehungBP&lt;/div&gt;&lt;table style=&quot;width: 100% ; font-size: 1em&quot; cellpadding=&quot;2&quot; cellspacing=&quot;0&quot;&gt;&lt;tbody&gt;&lt;tr&gt;&lt;td&gt;PKI&lt;/td&gt;&lt;td&gt;ID&lt;/td&gt;&lt;/tr&gt;&lt;tr&gt;&lt;td&gt;&lt;br&gt;&lt;/td&gt;&lt;td&gt;&lt;/td&gt;&lt;/tr&gt;&lt;tr&gt;&lt;td&gt;&lt;/td&gt;&lt;td&gt;LoadDate&lt;br&gt;DataSourceID&lt;/td&gt;&lt;/tr&gt;&lt;/tbody&gt;&lt;/table&gt;" style="verticalAlign=top;align=left;overflow=fill;html=1;fillColor=#66FF66;" vertex="1" parent="1">
          <mxGeometry x="404" y="1020" width="180" height="120" as="geometry" />
        </mxCell>
        <mxCell id="h-m4HwnTKxRCpeS-PRZZ-180" value="&lt;div style=&quot;box-sizing: border-box ; width: 100% ; background: #e4e4e4 ; padding: 2px&quot;&gt;SAT GeodatenBP&lt;/div&gt;&lt;table style=&quot;width: 100% ; font-size: 1em&quot; cellpadding=&quot;2&quot; cellspacing=&quot;0&quot;&gt;&lt;tbody&gt;&lt;tr&gt;&lt;td&gt;PK&lt;/td&gt;&lt;td&gt;ID&lt;/td&gt;&lt;/tr&gt;&lt;tr&gt;&lt;td&gt;&lt;br&gt;&lt;/td&gt;&lt;td&gt;KontaktdatenID&lt;/td&gt;&lt;/tr&gt;&lt;tr&gt;&lt;td&gt;&lt;/td&gt;&lt;td&gt;MandantID&lt;br&gt;DataSourceID&lt;br&gt;Attribut1&lt;br&gt;...&lt;br&gt;&lt;br&gt;&lt;/td&gt;&lt;/tr&gt;&lt;/tbody&gt;&lt;/table&gt;" style="verticalAlign=top;align=left;overflow=fill;html=1;fillColor=#FFFF66;" vertex="1" parent="1">
          <mxGeometry x="1169" y="1020" width="180" height="120" as="geometry" />
        </mxCell>
        <mxCell id="h-m4HwnTKxRCpeS-PRZZ-181" value="&lt;div style=&quot;box-sizing: border-box ; width: 100% ; background: #e4e4e4 ; padding: 2px&quot;&gt;SAT AenderungsbelegBP&lt;/div&gt;&lt;table style=&quot;width: 100% ; font-size: 1em&quot; cellpadding=&quot;2&quot; cellspacing=&quot;0&quot;&gt;&lt;tbody&gt;&lt;tr&gt;&lt;td&gt;PK&lt;/td&gt;&lt;td&gt;ID&lt;/td&gt;&lt;/tr&gt;&lt;tr&gt;&lt;td&gt;&lt;br&gt;&lt;/td&gt;&lt;td&gt;PartnerID&lt;/td&gt;&lt;/tr&gt;&lt;tr&gt;&lt;td&gt;&lt;/td&gt;&lt;td&gt;MandantID&lt;br&gt;DataSourceID&lt;br&gt;Attribut1&lt;br&gt;...&lt;br&gt;&lt;br&gt;&lt;/td&gt;&lt;/tr&gt;&lt;/tbody&gt;&lt;/table&gt;" style="verticalAlign=top;align=left;overflow=fill;html=1;fillColor=#FFFF66;" vertex="1" parent="1">
          <mxGeometry x="-180" y="1030" width="180" height="120" as="geometry" />
        </mxCell>
        <mxCell id="h-m4HwnTKxRCpeS-PRZZ-182" value="&lt;div style=&quot;box-sizing: border-box ; width: 100% ; background: #e4e4e4 ; padding: 2px&quot;&gt;SAT AenderungsbelegkopfBP&lt;/div&gt;&lt;table style=&quot;width: 100% ; font-size: 1em&quot; cellpadding=&quot;2&quot; cellspacing=&quot;0&quot;&gt;&lt;tbody&gt;&lt;tr&gt;&lt;td&gt;PK&lt;/td&gt;&lt;td&gt;ID&lt;/td&gt;&lt;/tr&gt;&lt;tr&gt;&lt;td&gt;&lt;br&gt;&lt;/td&gt;&lt;td&gt;PartnerID&lt;/td&gt;&lt;/tr&gt;&lt;tr&gt;&lt;td&gt;&lt;/td&gt;&lt;td&gt;MandantID&lt;br&gt;DataSourceID&lt;br&gt;Attribut1&lt;br&gt;...&lt;br&gt;&lt;br&gt;&lt;/td&gt;&lt;/tr&gt;&lt;/tbody&gt;&lt;/table&gt;" style="verticalAlign=top;align=left;overflow=fill;html=1;fillColor=#FFFF66;" vertex="1" parent="1">
          <mxGeometry x="100" y="1030" width="180" height="120" as="geometry" />
        </mxCell>
      </root>
    </mxGraphModel>
  </diagram>
</mxfile>
